<?xml version="1.0" ?><svg height="512" id="Layer_1" version="1.1" viewBox="0 0 512 512" width="512" xml:space="preserve" xmlns="http://www.w3.org/2000/svg" xmlns:cc="http://creativecommons.org/ns#" xmlns:dc="http://purl.org/dc/elements/1.1/" xmlns:inkscape="http://www.inkscape.org/namespaces/inkscape" xmlns:rdf="http://www.w3.org/1999/02/22-rdf-syntax-ns#" xmlns:sodipodi="http://sodipodi.sourceforge.net/DTD/sodipodi-0.dtd" xmlns:svg="http://www.w3.org/2000/svg"><defs id="defs12"/><g id="g5404"><rect height="512" id="rect2987" style="fill:#000000;fill-opacity:1;fill-rule:nonzero;stroke:none" width="512" x="0" y="0"/><g id="g7802" transform="matrix(1.4504724,0,0,1.4504724,-1229.2815,-21.355791)"><path d="m 1009.9215,127.78623 c 6.0116,2.81777 11.1837,7.65278 16.9466,10.99772 13.24,7.68668 26.2416,18.37919 40.7723,23.35807 14.5801,4.99326 31.1578,4.72505 38.3441,-11.17139 1.9371,-4.28317 2.3923,-8.88696 3.3809,-13.43525 0.2332,-1.0821 0.6525,-2.89382 0.8365,-4.69012 0.3062,-2.98732 -0.04,-5.93765 -2.9637,-5.43206 -5.614,0.97317 -6.6252,14.42281 -11.49,17.49029 -10.602,6.6868 -20.4447,4.76616 -31.24,-0.12537 -17.9455,-8.13267 -36.6762,-14.70232 -54.3442,-23.41767 -2.1796,-1.0749 -15.56659,-7.62091 -10.1232,0.81183 1.8507,2.86812 6.9324,4.22871 9.8807,5.61395 z" id="path9" style="fill:#ffffff"/><path d="m 1140.9147,188.10719 c -0.7286,-2.4581 -2.4694,-6.7721 -4.4702,-7.09888 -3.7868,-0.61864 -3.4991,6.46072 -5.1341,8.78933 -3.0705,4.38593 -8.8407,5.97157 -13.0807,8.94142 -5.1011,3.56691 -9.2374,8.35157 -14.5225,11.68212 -23.2296,14.64786 -49.7116,2.67698 -73.6339,-3.33364 -27.26,-6.85019 -55.38523,-13.21637 -79.30849,-28.75827 -3.78888,-2.46015 -10.58564,-5.64684 -11.82496,-10.44485 0.71112,2.75097 0.0822,4.39313 2.11178,7.1852 1.74492,2.40055 4.26879,4.43012 6.52033,6.33433 10.72847,9.07193 23.13918,16.92714 35.94244,22.71579 7.65586,3.46004 13.77232,10.19103 21.6923,12.98619 26.963,9.51587 54.002,17.38136 82.4623,20.39437 24.2336,2.56086 59.7516,-20.16521 53.5201,-48.35521 -0.062,-0.27951 -0.1542,-0.63507 -0.2744,-1.0379 z" id="path11-0" style="fill:#ffffff"/><path d="m 1161.6009,192.2434 c -1.5209,-12.5073 -5.8451,-25.04646 -12.8495,-37.26603 -6.3025,-10.99874 -13.0519,-21.76935 -20.7027,-31.88639 -6.176,-8.17275 -17.1532,-15.67343 -22.1865,-24.085628 -1.7614,-2.940054 -4.089,-4.714774 -5.8842,-6.081524 -0.5776,-0.439826 -1.1222,-0.85499 -1.562,-1.244462 -1.6412,-1.463347 -3.3008,-2.992463 -4.908,-4.474308 -3.2329,-2.978077 -6.5758,-6.058917 -10.1818,-8.993833 -11.0347,-8.989722 -26.0124,-19.438681 -44.0073,-20.462202 -1.2434,-0.06782 -2.4879,-0.145924 -3.7272,-0.217858 -15.9375,-0.965974 -32.8626,-4.636675 -48.74366,-3.390157 -13.04989,1.023521 -28.29584,4.620232 -40.37668,9.767639 -15.04041,6.404201 -26.90134,14.074444 -37.3205,24.134958 -13.4743,13.010845 -21.19182,28.080035 -22.93674,44.792415 -0.82107,7.90762 3.44874,20.40568 8.32382,28.19204 -0.15003,0.58678 -0.34426,1.23213 -0.54464,1.89907 -0.6731,2.23407 -1.51268,5.01381 -1.47466,8.23338 0.0401,3.16305 0.24253,6.23773 0.43983,9.21683 0.22197,3.34803 0.43058,6.50902 0.409,9.67824 -0.0668,11.31525 -0.11304,21.52066 -0.0144,31.81445 0.12023,12.15277 0.6546,22.39312 6.24286,34.26226 4.83809,10.27838 11.74892,20.18064 20.53825,29.42727 25.215,26.51803 61.61783,42.98994 95.00662,42.98994 3.4631,0 6.9334,-0.1747 10.3082,-0.51793 16.3825,-1.67195 29.8907,-6.09591 40.1485,-13.14649 9.8293,-6.75976 16.7442,-15.85224 23.431,-24.64877 1.0534,-1.38525 2.1057,-2.76947 3.1651,-4.14033 4.499,-5.80201 9.2549,-11.25565 14.5431,-16.6651 1.4109,-1.44691 2.8393,-2.8784 4.2657,-4.31092 1.7727,-1.7778 3.606,-3.61726 5.4033,-5.47419 0.6772,-0.69776 1.3976,-1.60311 2.7181,-3.27506 0.9505,-1.20644 3.0037,-3.80532 4.1547,-5.01176 0.5066,-0.2826 0.9906,-0.60425 1.4489,-0.96392 2.3636,-1.8631 4.8155,-3.53095 7.4082,-5.29642 7.1133,-4.84528 14.4722,-9.85498 19.8107,-18.81696 5.95,-9.97625 11.2372,-21.00788 9.6546,-34.03825 z M 1017.5814,67.952378 c 1.0328,-0.03186 2.0892,-0.05035 3.1949,-0.05035 4.6593,0 9.4399,0.29082 14.058,0.572391 1.2887,0.0781 2.5773,0.158255 3.866,0.230189 14.7578,0.840603 27.3391,9.578555 37.6987,18.015411 3.3439,2.724252 6.5604,5.685887 9.673,8.551951 1.6689,1.539393 3.3419,3.078785 5.0498,4.602763 0.7543,0.668987 1.4932,1.232127 2.2115,1.781907 1.599,1.21569 2.863,2.17858 3.5011,3.76627 0.3217,0.80361 0.5108,1.69971 0.6382,2.65951 l -0.08,0.14695 c 0.033,0.0185 0.069,0.0473 0.1059,0.0658 0.1038,0.84472 0.1726,1.72848 0.2353,2.63999 l 0.013,0.21272 c 0.082,1.14581 0.1623,2.17755 0.3216,3.22368 0.4039,2.69137 0.706,5.86264 -0.114,8.95375 -2.7027,10.16636 -12.2073,13.77027 -19.523,13.77027 -0.9639,0 -1.9217,-0.0575 -2.8722,-0.17162 3.2586,-0.31342 6.4381,-1.09237 9.3555,-2.48173 11.5393,-5.47625 14.7846,-18.15105 7.3024,-29.03265 -1.6524,0.1079 -3.6317,0.67927 -3.5988,2.31731 0.11,6.10722 -4.946,9.99783 -9.8611,12.54122 -7.3394,3.79196 -14.7414,1.34723 -22.0468,-1.02969 -7.6446,-2.48687 -15.8174,-3.71283 -23.0868,-7.2633 -4.314,-2.10767 -8.2468,-4.94188 -12.2741,-7.53254 -4.7589,-3.06131 -11.3769,-6.031165 -14.9314,-10.520888 0.5323,0.670016 -0.074,5.664306 0.6751,7.240688 1.2732,2.67595 3.6728,4.7939 5.5903,6.99817 -7.6414,0.5241 -20.95338,-8.00628 -22.92232,-14.689988 -1.62777,-5.52352 -0.71935,-14.382733 4.53288,-17.874626 2.7037,-1.794245 6.64264,-1.541447 9.72964,-2.160081 4.5627,-0.921786 9.0216,-3.433318 13.5575,-5.483443 z M 920.07664,227.27742 c -0.34425,1.14376 -0.50251,2.63691 -0.62069,4.26468 -0.34734,4.67675 -0.38022,10.47465 -3.61623,12.31719 -5.09706,-6.1401 -1.19822,-16.95387 0.39255,-23.7013 2.36972,-10.03996 1.97306,-19.60824 0.92693,-29.8712 0.0822,0.82108 5.09602,4.69423 5.85647,6.02295 1.48596,2.61327 2.26387,5.61498 2.4879,8.60847 0.58472,7.92099 -3.2093,14.99109 -5.42693,22.35921 z m 46.37086,-0.96289 c -6.1956,11.01519 -9.48299,22.88125 -12.04487,35.11623 -0.91254,4.35305 -3.1908,8.41939 -4.84734,12.61829 -0.89507,0.92076 -1.79014,1.84049 -2.68623,2.76022 -3.80121,-0.28876 -3.99543,-0.77483 -2.74995,-6.843 5.75885,-16.54178 11.45707,-33.10412 17.35259,-49.59659 0.65049,-1.8189 1.17253,-4.1506 3.29459,-4.94907 0.96495,0.63508 1.91345,1.23213 2.84551,1.75828 1.60619,3.0757 0.38023,6.39187 -1.1643,9.13564 z m 61.3116,17.57045 c -5.5482,4.68703 -8.1625,10.94839 -9.595,17.84482 -2.7767,13.3808 -11.825,27.1377 -19.25475,38.99143 -1.8857,3.01302 -5.48447,8.15118 -8.69273,2.81058 -3.77449,-6.28089 6.01575,-9.58267 9.09865,-13.19171 4.99013,-5.83284 8.77293,-16.33729 11.75403,-23.47111 2.899,-6.94268 4.4836,-14.66944 5.3406,-22.11772 0.2754,-2.36663 0.1757,-5.18748 3.1435,-6.34357 3.2504,0.36276 7.5644,-1.39758 8.2324,4.12389 -0.01,0.4501 -0.019,0.90123 -0.027,1.35339 z m 40.7682,17.33306 c -9.3628,9.38125 -13.9388,21.68303 -20.1457,32.98493 -2.8239,5.14843 -7.7247,16.65688 -14.0405,16.89323 -10.3462,0.38948 0.6587,-6.26855 2.3563,-9.3833 5.0478,-9.25691 9.779,-32.15768 17.9086,-39.44359 5.9705,-5.35088 13.3294,-8.99383 22.242,-9.81799 -2.0224,0.18805 -6.8902,7.72676 -8.3207,8.76672 z m 72.82,-41.25222 c -5.9808,10.02763 -14.1063,16.27975 -23.3416,19.748 -23.2892,8.73898 -44.3567,-1.01941 -66.7899,-6.61692 -13.6665,-3.41173 -28.3935,-2.98013 -41.6016,-8.17789 l -3.4344,-1.34928 c -6.80904,-2.68315 -13.84832,-5.46084 -20.77764,-7.92818 l -2.1796,-0.76867 c -5.61807,-1.97305 -10.05744,-3.533 -15.18943,-7.16773 l -5.09808,-3.60288 c -4.51952,-3.19079 -9.04007,-6.38159 -13.52158,-9.61555 -12.20312,-8.80372 -24.18223,-19.55685 -35.60949,-31.9614 -1.45102,-1.57638 -2.96575,-2.57216 -4.30269,-3.45181 -0.91049,-0.60014 -1.6956,-1.11807 -2.34609,-1.73978 -4.14341,-3.96255 -9.24457,-17.63313 -8.66191,-23.21831 1.45308,-13.93366 7.74424,-26.09774 19.23213,-37.186911 9.30315,-8.982529 19.97511,-15.866634 33.58506,-21.661449 1.51884,-0.648435 3.24835,-1.042018 5.0765,-1.460264 1.8631,-0.426468 3.79094,-0.867322 5.70747,-1.616465 10.15917,-3.987211 22.3736,-6.147293 33.32712,-5.998286 -0.80566,0.448047 -1.57947,0.957752 -2.29059,1.554806 -1.28146,1.068737 -2.22379,2.29573 -3.05823,3.372688 -0.92281,1.200273 -1.72231,2.238181 -2.85373,2.991436 -4.39827,2.930805 -7.34449,7.477048 -8.08644,12.472365 -0.69468,4.692167 0.63611,9.362753 3.7488,13.145465 1.61955,1.970995 8.24675,8.610525 17.14292,13.138275 10.6997,5.44542 22.0828,9.54669 33.0929,13.51027 10.7706,3.87725 21.9142,7.88605 32.2018,13.11053 3.9852,2.02443 8.5222,3.09625 13.1157,3.09625 12.1969,0 21.942,-7.00845 24.8224,-17.84688 1.079,-4.06223 0.7245,-7.93229 0.2323,-11.19502 2.2731,2.58244 4.4188,5.57696 6.4165,8.38753 1.4151,1.98436 2.75,3.86184 4.1095,5.58621 1.3709,1.73567 2.8476,3.19696 4.2729,4.61304 1.4592,1.44587 2.8363,2.81468 3.9512,4.32941 6.2768,8.5427 12.0593,18.12331 15.8071,24.65802 6.1791,10.78088 9.9834,21.75702 11.3029,32.62114 1.1335,9.34837 -3.1764,18.12742 -8.0022,26.22824 z" id="path13-0" style="fill:#ffffff"/></g></g></svg>